<svg width="12" height="17" viewBox="0 0 12 17" fill="none" xmlns="http://www.w3.org/2000/svg">
<path d="M6.7 1C6.7 0.613401 6.3866 0.3 6 0.3C5.6134 0.3 5.3 0.613401 5.3 1L6.7 1ZM5.50503 16.495C5.77839 16.7683 6.22161 16.7683 6.49498 16.495L10.9497 12.0402C11.2231 11.7668 11.2231 11.3236 10.9497 11.0503C10.6764 10.7769 10.2332 10.7769 9.9598 11.0503L6 15.0101L2.0402 11.0503C1.76684 10.7769 1.32362 10.7769 1.05025 11.0503C0.776886 11.3236 0.776886 11.7668 1.05025 12.0402L5.50503 16.495ZM5.3 1L5.3 16L6.7 16L6.7 1L5.3 1Z" fill="white"/>
</svg>
