<svg width="222" height="222" viewBox="0 0 222 222" fill="none" xmlns="http://www.w3.org/2000/svg">
<path d="M206.68 115.585L206.68 107.405L207.64 107.405L207.64 115.585L206.68 115.585Z" fill="black"/>
<path d="M196.132 145.016L195.83 144.582L196.134 143.952L207.239 143.661L206.719 144.743L196.132 145.016ZM202.215 154.095L201.72 155.122L201.512 154.91L195.639 144.979L195.917 144.402L196.453 144.394L202.215 154.095ZM190.38 155.898L201.735 154.308L202.076 154.383L201.59 155.392L190.432 156.944L190.085 156.511L190.38 155.898ZM190.655 156.297L197.069 164.78L196.54 165.879L189.877 156.944L190.181 156.313L190.655 156.297Z" fill="black"/>
<path d="M182.415 168.62C181.833 169.35 181.313 170.077 180.854 170.803C180.386 171.538 180 172.194 179.695 172.769C179.381 173.355 179.159 173.783 179.028 174.054L178.144 173.655C178.366 173.184 178.654 172.63 179.009 171.992C179.356 171.365 179.76 170.698 180.221 169.991C180.674 169.295 181.163 168.619 181.686 167.962C182.775 166.596 183.819 165.544 184.817 164.806C185.807 164.077 186.786 163.706 187.752 163.692C188.718 163.678 189.717 164.083 190.749 164.906C191.739 165.696 192.331 166.568 192.524 167.524C192.728 168.488 192.597 169.517 192.132 170.613C191.678 171.718 190.968 172.875 190.004 174.084C189.331 174.928 188.649 175.655 187.958 176.264C187.26 176.884 186.558 177.347 185.852 177.654C185.147 177.961 184.433 178.065 183.71 177.967C182.998 177.876 182.282 177.544 181.563 176.97C181.5 176.921 181.437 176.861 181.372 176.793C181.299 176.734 181.23 176.671 181.165 176.602C181.111 176.542 181.067 176.49 181.034 176.446L190.062 165.126L190.688 165.624L181.959 176.57L181.923 175.877C182.663 176.467 183.404 176.81 184.146 176.907C184.879 177.014 185.661 176.803 186.494 176.272C187.326 175.742 188.27 174.815 189.325 173.491C190.198 172.397 190.834 171.386 191.232 170.459C191.631 169.531 191.744 168.684 191.572 167.916C191.4 167.147 190.902 166.435 190.079 165.778C189.412 165.246 188.764 164.926 188.134 164.816C187.516 164.715 186.904 164.798 186.298 165.066C185.693 165.333 185.073 165.768 184.439 166.371C183.805 166.974 183.13 167.724 182.415 168.62Z" fill="black"/>
<path d="M167.382 182.43L173.09 177.878L173.701 178.645L167.978 183.209C167.019 183.973 166.264 184.737 165.713 185.501C165.17 186.275 164.889 187.045 164.869 187.811C164.858 188.588 165.163 189.367 165.787 190.149C166.676 191.264 167.633 191.823 168.658 191.824C169.68 191.844 170.838 191.339 172.13 190.308C172.975 189.635 173.718 188.889 174.361 188.069C175.004 187.25 175.578 186.408 176.083 185.545C176.596 184.692 177.07 183.854 177.505 183.03L178.066 183.733C177.702 184.518 177.267 185.351 176.76 186.233C176.242 187.124 175.646 187.991 174.972 188.835C174.288 189.688 173.518 190.455 172.663 191.137C171.11 192.376 169.691 192.97 168.406 192.92C167.13 192.881 165.968 192.204 164.921 190.891C164.147 189.921 163.763 188.958 163.766 188C163.77 187.042 164.09 186.096 164.726 185.162C165.371 184.238 166.257 183.328 167.382 182.43ZM173.403 177.629L182.755 189.356L181.864 190.067L172.511 178.34L173.403 177.629Z" fill="black"/>
<path d="M126.563 210.348L126.451 209.409C127.037 209.399 127.738 209.355 128.555 209.278C129.361 209.217 130.208 209.119 131.093 208.986C131.979 208.852 132.838 208.69 133.67 208.5C134.892 208.221 135.922 207.849 136.759 207.385C137.584 206.923 138.167 206.332 138.508 205.611C138.853 204.903 138.906 204.029 138.669 202.989C138.355 201.612 137.735 200.693 136.809 200.234C135.887 199.788 134.6 199.754 132.949 200.131C131.897 200.371 130.909 200.719 129.988 201.176C129.066 201.632 128.197 202.138 127.38 202.694C126.55 203.253 125.773 203.799 125.047 204.334L124.869 203.554C125.362 203.141 125.913 202.708 126.521 202.254C127.119 201.817 127.76 201.39 128.444 200.974C129.119 200.574 129.83 200.213 130.577 199.892C131.324 199.571 132.094 199.32 132.887 199.139C134.174 198.846 135.287 198.776 136.225 198.932C137.15 199.09 137.91 199.484 138.505 200.114C139.1 200.744 139.522 201.605 139.772 202.697C140.065 203.984 139.998 205.066 139.569 205.943C139.143 206.834 138.428 207.565 137.423 208.136C136.418 208.707 135.207 209.154 133.791 209.478C132.504 209.771 131.225 209.981 129.954 210.107C128.674 210.249 127.543 210.329 126.563 210.348ZM128.626 215.703L127.515 215.957L124.177 201.333L125.132 201.115L125.787 203.263L128.626 215.703Z" fill="black"/>
<path d="M110.477 202.76C109.544 202.76 108.651 202.807 107.797 202.9C106.931 202.993 106.177 203.1 105.537 203.22C104.884 203.34 104.411 203.433 104.117 203.5L103.877 202.56C104.384 202.44 104.997 202.32 105.717 202.2C106.424 202.08 107.197 201.98 108.037 201.9C108.864 201.82 109.697 201.78 110.537 201.78C112.284 201.78 113.757 201.94 114.957 202.26C116.144 202.58 117.044 203.113 117.657 203.86C118.271 204.607 118.577 205.64 118.577 206.96C118.577 208.227 118.264 209.233 117.637 209.98C117.011 210.74 116.124 211.28 114.977 211.6C113.831 211.933 112.484 212.1 110.937 212.1C109.857 212.1 108.864 212.02 107.957 211.86C107.037 211.7 106.237 211.44 105.557 211.08C104.877 210.72 104.351 210.227 103.977 209.6C103.604 208.987 103.417 208.22 103.417 207.3C103.417 207.22 103.424 207.133 103.437 207.04C103.437 206.947 103.444 206.853 103.457 206.76C103.471 206.68 103.484 206.613 103.497 206.56L117.977 206.56L117.977 207.36L103.977 207.36L104.497 206.9C104.497 207.847 104.691 208.64 105.077 209.28C105.451 209.92 106.104 210.4 107.037 210.72C107.971 211.04 109.284 211.2 110.977 211.2C112.377 211.2 113.564 211.067 114.537 210.8C115.511 210.533 116.244 210.093 116.737 209.48C117.231 208.867 117.477 208.033 117.477 206.98C117.477 206.127 117.324 205.42 117.017 204.86C116.711 204.313 116.264 203.887 115.677 203.58C115.091 203.273 114.364 203.06 113.497 202.94C112.631 202.82 111.624 202.76 110.477 202.76Z" fill="black"/>
<path d="M91.0678 200.55L81.6635 207.778L80.3766 207.485L90.433 199.646L91.6614 199.926L96.7359 211.219L95.4099 210.916L90.7168 200.47L91.0678 200.55Z" fill="black"/>
<path d="M70.716 193.446C69.8751 193.041 69.05 192.696 68.2407 192.41C67.4193 192.118 66.6943 191.887 66.0656 191.717C65.4249 191.542 64.958 191.421 64.6648 191.353L64.8564 190.402C65.365 190.514 65.9696 190.672 66.6704 190.876C67.3591 191.075 68.0993 191.32 68.8908 191.613C69.6703 191.899 70.4385 192.225 71.1953 192.589C72.769 193.347 74.027 194.131 74.9693 194.94C75.8996 195.743 76.4791 196.614 76.7077 197.553C76.9363 198.491 76.7643 199.555 76.1916 200.745C75.642 201.886 74.9229 202.657 74.0343 203.058C73.14 203.471 72.1068 203.572 70.9348 203.363C69.7571 203.166 68.4715 202.732 67.078 202.061C66.1049 201.592 65.2447 201.089 64.4972 200.552C63.7378 200.008 63.1298 199.427 62.6733 198.808C62.2169 198.188 61.9564 197.515 61.892 196.789C61.8217 196.074 61.9862 195.302 62.3853 194.473C62.4201 194.401 62.4637 194.326 62.5162 194.248C62.5567 194.164 62.6032 194.083 62.6557 194.004C62.7024 193.938 62.7433 193.884 62.7785 193.841L75.8245 200.124L75.4774 200.845L62.8639 194.77L63.5319 194.582C63.1212 195.435 62.9512 196.233 63.0219 196.978C63.0805 197.716 63.4609 198.432 64.163 199.125C64.865 199.819 65.9789 200.533 67.5045 201.267C68.7659 201.875 69.8929 202.27 70.8855 202.452C71.8782 202.634 72.7298 202.555 73.4404 202.217C74.151 201.878 74.7348 201.235 75.1918 200.285C75.5621 199.517 75.7305 198.813 75.6972 198.176C75.6581 197.55 75.4408 196.972 75.0453 196.441C74.6498 195.91 74.0876 195.403 73.3588 194.919C72.6301 194.435 71.7491 193.944 70.716 193.446Z" fill="black"/>
<path d="M44.0704 193.205L53.4228 181.477L54.3141 182.188L44.9617 193.915L44.0704 193.205Z" fill="black"/>
<path d="M41.1296 177.261C39.7223 178.383 38.2892 178.682 36.8303 178.157C35.3526 177.63 33.7285 176.256 31.9578 174.036C30.187 171.816 29.2133 169.932 29.0367 168.384C28.8412 166.835 29.4472 165.499 30.8545 164.376C32.2513 163.263 33.6886 162.969 35.1662 163.496C36.6251 164.021 38.2399 165.394 40.0106 167.614C41.7813 169.834 42.7644 171.719 42.9598 173.269C43.1365 174.816 42.5264 176.147 41.1296 177.261ZM40.4188 176.37C41.1798 175.763 41.6598 175.082 41.8587 174.326C42.039 173.568 41.9144 172.696 41.4848 171.708C41.0449 170.729 40.2929 169.572 39.2288 168.238C38.1647 166.903 37.2042 165.913 36.3473 165.266C35.4799 164.627 34.661 164.317 33.8905 164.334C33.1013 164.35 32.3262 164.661 31.5652 165.268C30.7938 165.883 30.3232 166.565 30.1534 167.315C29.9648 168.062 30.0853 168.929 30.5148 169.917C30.9339 170.913 31.6755 172.078 32.7396 173.412C33.8037 174.747 34.7746 175.729 35.6524 176.359C36.5197 176.998 37.3428 177.314 38.1216 177.306C38.8816 177.297 39.6474 176.985 40.4188 176.37Z" fill="black"/>
<path d="M31.4856 156.957L30.6307 157.302C30.4842 156.721 30.2915 156.045 30.0525 155.272C29.7958 154.493 29.5036 153.686 29.1761 152.853C28.8485 152.019 28.4967 151.211 28.1207 150.431C27.5827 149.313 26.9969 148.404 26.3632 147.703C25.7238 146.99 25.0147 146.547 24.2361 146.374C23.4574 146.202 22.5936 146.344 21.6446 146.801C20.3712 147.414 19.6197 148.22 19.3902 149.219C19.1429 150.211 19.3837 151.464 20.1127 152.977C20.5755 153.938 21.1348 154.823 21.7907 155.632C22.4466 156.441 23.1392 157.188 23.8685 157.873C24.58 158.551 25.2831 159.197 25.9777 159.809L25.2749 160.148C24.7619 159.758 24.2257 159.321 23.6664 158.836C23.0893 158.344 22.5277 157.808 21.9817 157.227C21.4237 156.652 20.9051 156.037 20.4259 155.379C19.9408 154.71 19.519 154.003 19.1603 153.258C18.5933 152.081 18.284 151.024 18.2323 150.087C18.1749 149.138 18.3899 148.309 18.8775 147.601C19.3473 146.886 20.0928 146.283 21.1139 145.791C22.2912 145.224 23.3612 145.049 24.3241 145.267C25.287 145.484 26.1586 146.018 26.9391 146.871C27.7138 147.711 28.4165 148.786 29.047 150.096C29.6198 151.285 30.1117 152.491 30.523 153.713C30.9342 154.936 31.2551 156.017 31.4856 156.957ZM34.9946 154.379L35.4893 155.406L23.2541 161.298L22.8289 160.415L24.7777 159.299L34.9946 154.379Z" fill="black"/>
<path d="M21.4243 130.909C21.2167 129.999 20.9724 129.139 20.6915 128.327C20.4077 127.503 20.136 126.793 19.8766 126.195C19.6143 125.585 19.4179 125.144 19.2877 124.873L20.1507 124.43C20.3804 124.897 20.6339 125.469 20.9111 126.144C21.1853 126.806 21.4549 127.538 21.7198 128.339C21.9818 129.127 22.2062 129.931 22.3931 130.75C22.7818 132.452 22.9537 133.924 22.9087 135.166C22.8608 136.394 22.5411 137.39 21.9496 138.154C21.3582 138.918 20.419 139.447 19.1321 139.741C17.8972 140.022 16.846 139.941 15.9786 139.496C15.0982 139.054 14.3745 138.31 13.8073 137.263C13.2272 136.22 12.765 134.944 12.4209 133.436C12.1806 132.383 12.0375 131.397 11.9918 130.477C11.943 129.545 12.0185 128.707 12.2181 127.964C12.4178 127.221 12.7816 126.598 13.3095 126.094C13.8243 125.594 14.5302 125.241 15.4272 125.036C15.5052 125.019 15.5911 125.006 15.6851 124.998C15.7761 124.977 15.8686 124.963 15.9625 124.955C16.0435 124.95 16.1115 124.949 16.1664 124.95L19.3885 139.067L18.6086 139.245L15.4933 125.596L16.0575 126C15.1345 126.211 14.4041 126.576 13.8662 127.095C13.3253 127.602 13.0027 128.345 12.8984 129.327C12.7942 130.308 12.9304 131.624 13.3072 133.275C13.6187 134.64 14.0128 135.767 14.4894 136.656C14.9659 137.546 15.5581 138.163 16.2658 138.507C16.9735 138.852 17.8409 138.907 18.8678 138.673C19.6997 138.483 20.3546 138.176 20.8323 137.752C21.297 137.332 21.6136 136.801 21.782 136.161C21.9504 135.521 21.9967 134.765 21.9209 133.893C21.845 133.022 21.6795 132.027 21.4243 130.909Z" fill="black"/>
<path d="M20 115.072L10.12 115.072L10.12 114.092L12.92 113.932L20 113.932L20 115.072ZM9.9 106.292L10.94 106.292C10.94 106.945 10.9867 107.599 11.08 108.252C11.1733 108.905 11.3333 109.579 11.56 110.272C11.7733 110.965 12.06 111.679 12.42 112.412C12.78 113.132 13.22 113.885 13.74 114.672L12.9 114.672C12.5 114.125 12.1267 113.545 11.78 112.932C11.42 112.319 11.1 111.665 10.82 110.972C10.54 110.279 10.32 109.545 10.16 108.772C9.98667 107.985 9.9 107.159 9.9 106.292Z" fill="black"/>
<path d="M26.7847 65.3549L23.2356 72.7248L22.3706 72.3083L25.9198 64.9384L26.7847 65.3549Z" fill="black"/>
<path d="M54.6175 39.5701L48.9101 44.1216L48.2991 43.3554L54.0221 38.7915C54.9812 38.0267 55.7361 37.2626 56.287 36.4992C56.8296 35.7254 57.1109 34.9554 57.1308 34.1891C57.1424 33.4125 56.8365 32.6332 56.213 31.8514C55.3235 30.736 54.3665 30.1775 53.342 30.1759C52.3196 30.1556 51.1621 30.6608 49.8695 31.6917C49.0251 32.365 48.2816 33.1114 47.639 33.9309C46.9964 34.7503 46.4224 35.5917 45.9172 36.4551C45.4036 37.3081 44.9296 38.1465 44.4952 38.9704L43.9341 38.2668C44.2976 37.4823 44.7331 36.649 45.2404 35.7669C45.7582 34.8765 46.3541 34.0091 47.028 33.1647C47.7123 32.312 48.4818 31.5448 49.3366 30.8631C50.8899 29.6244 52.3088 29.0301 53.5936 29.0799C54.87 29.1194 56.0319 29.7958 57.0794 31.1093C57.8525 32.0788 58.2373 33.0425 58.2337 34.0003C58.2301 34.9582 57.9101 35.9041 57.2735 36.8381C56.6287 37.7616 55.7433 38.6723 54.6175 39.5701ZM48.5974 44.371L39.245 32.6435L40.1363 31.9328L49.4887 43.6602L48.5974 44.371Z" fill="black"/>
<path d="M71.6577 28.1004C72.4986 27.6954 73.2832 27.2658 74.0115 26.8114C74.7519 26.3513 75.3843 25.9284 75.9089 25.5426C76.4454 25.151 76.8314 24.8615 77.0668 24.6742L77.6908 25.4169C77.2864 25.7449 76.7859 26.1191 76.1893 26.5396C75.6046 26.9544 74.9513 27.38 74.2292 27.8165C73.5191 28.2473 72.7856 28.6449 72.0288 29.0094C70.4551 29.7672 69.0583 30.2623 67.8383 30.4947C66.6303 30.7212 65.588 30.6312 64.7114 30.2246C63.8349 29.818 63.1102 29.02 62.5375 27.8308C61.9879 26.6895 61.8335 25.6466 62.0741 24.702C62.309 23.7454 62.8735 22.8741 63.7678 22.0883C64.6563 21.2905 65.7973 20.556 67.1908 19.8849C68.1638 19.4163 69.0935 19.0574 69.9798 18.8082C70.8781 18.5532 71.7117 18.4403 72.4805 18.4696C73.2494 18.4989 73.9379 18.7149 74.5462 19.1175C75.1487 19.5081 75.6495 20.1179 76.0487 20.9468C76.0834 21.0188 76.115 21.0998 76.1435 21.1897C76.184 21.2738 76.2185 21.3608 76.2469 21.4506C76.2696 21.5285 76.2866 21.5944 76.2977 21.6482L63.2516 27.9308L62.9045 27.2101L75.5181 21.1357L75.2492 21.7757C74.8384 20.9228 74.32 20.2919 73.694 19.8831C73.0799 19.4685 72.283 19.3195 71.3033 19.4361C70.3235 19.5528 69.0709 19.9784 67.5452 20.7131C66.2839 21.3206 65.2726 21.9556 64.5113 22.6182C63.7501 23.2807 63.2803 23.9953 63.1019 24.762C62.9235 25.5286 63.0629 26.3865 63.5199 27.3355C63.8901 28.1043 64.3349 28.6745 64.8542 29.0459C65.3677 29.4054 65.9552 29.596 66.6169 29.6178C67.2785 29.6395 68.0257 29.5165 68.8586 29.2485C69.6916 28.9806 70.6246 28.5979 71.6577 28.1004Z" fill="black"/>
<path d="M94.6611 11.8499L95.7592 11.5377L97.842 20.663L96.8866 20.8811L96.2054 18.6159L94.6611 11.8499ZM95.7592 11.5377L95.6218 12.5537C95.0232 12.5673 94.3155 12.6126 93.4988 12.6895C92.6952 12.7636 91.8439 12.869 90.9452 13.0057C90.0594 13.1395 89.2005 13.3013 88.3686 13.4912C87.1597 13.7672 86.1364 14.1375 85.2988 14.6022C84.4612 15.0669 83.8637 15.6546 83.5062 16.3653C83.1588 17.06 83.0993 17.9078 83.3277 18.9088C83.6571 20.3517 84.2779 21.3041 85.1902 21.766C86.1126 22.2119 87.3927 22.2479 89.0306 21.8741C90.0965 21.6308 91.0822 21.2759 91.9878 20.8094C92.9063 20.3399 93.7776 19.8128 94.6015 19.2281C95.4253 18.6435 96.2037 18.0692 96.9366 17.5053L97.1147 18.2852C96.6139 18.7278 96.0612 19.1822 95.4564 19.6484C94.8647 20.1117 94.2265 20.5514 93.5419 20.9675C92.8704 21.3806 92.1559 21.7557 91.3986 22.0927C90.6542 22.4267 89.8856 22.6842 89.0926 22.8651C87.8187 23.1559 86.7193 23.2222 85.7942 23.0641C84.8662 22.893 84.1032 22.4859 83.5051 21.8429C82.907 21.1998 82.4789 20.3128 82.2208 19.1819C81.933 17.921 82.005 16.8584 82.4368 15.9939C82.8786 15.1135 83.6034 14.3942 84.6111 13.836C85.6188 13.2778 86.8376 12.8355 88.2675 12.5091C89.6194 12.2005 90.9486 11.9724 92.2552 11.8246C93.5747 11.6739 94.7427 11.5782 95.7592 11.5377Z" fill="black"/>
<path d="M117.4 11.1L104.78 11.1L104.78 10.12L117.4 10.12L117.4 11.1ZM107.44 14.92L107.44 10.36L107.66 7.62L108.58 7.62L108.58 14.9C108.58 15.9533 108.707 16.8 108.96 17.44C109.227 18.0667 109.687 18.52 110.34 18.8C111.007 19.08 111.927 19.22 113.1 19.22C113.967 19.22 114.78 19.16 115.54 19.04C116.3 18.9067 117 18.7667 117.64 18.62L117.88 19.58C117.227 19.74 116.48 19.8867 115.64 20.02C114.813 20.1533 113.947 20.22 113.04 20.22C111.653 20.22 110.553 20.0467 109.74 19.7C108.927 19.34 108.34 18.7733 107.98 18C107.62 17.2267 107.44 16.2 107.44 14.92Z" fill="black"/>
<path d="M153.787 24.7423L151.496 29.4994L150.487 29.0134L152.769 24.2743C153.116 23.5536 153.279 22.8773 153.258 22.2455C153.254 21.6074 153.031 21.0114 152.587 20.4574C152.149 19.8914 151.438 19.3712 150.453 18.8968C149.9 18.6307 149.229 18.3962 148.439 18.1932C147.666 17.9841 146.814 17.8178 145.882 17.6945C144.962 17.577 144.009 17.4957 143.025 17.4507L143.389 16.6939C144.021 16.7024 144.666 16.7316 145.323 16.7814C145.985 16.8193 146.651 16.8959 147.321 17.0112C147.996 17.1145 148.66 17.2567 149.313 17.4378C149.966 17.6189 150.592 17.8541 151.193 18.1434C152.166 18.612 152.931 19.1582 153.489 19.7821C154.047 20.4059 154.359 21.1258 154.425 21.9419C154.503 22.7637 154.29 23.6971 153.787 24.7423ZM139.549 23.7461L143.836 14.8445L144.719 15.2697L144.03 17.069L140.576 24.2407L139.549 23.7461ZM164.724 30.0096L162.434 34.7667L161.424 34.2808L163.707 29.5417C164.054 28.8209 164.217 28.1446 164.195 27.5128C164.192 26.8748 163.968 26.2787 163.525 25.7248C163.087 25.1588 162.376 24.6386 161.39 24.1642C160.802 23.8807 160.085 23.617 159.241 23.3732C158.408 23.1351 157.502 22.9428 156.522 22.7963C155.547 22.6378 154.538 22.5365 153.494 22.4924L153.858 21.7356C154.52 21.7437 155.201 21.7753 155.899 21.8305C156.61 21.8915 157.318 21.9884 158.024 22.121C158.741 22.2594 159.442 22.4339 160.125 22.6444C160.813 22.8429 161.482 23.0984 162.131 23.4108C163.104 23.8793 163.869 24.4256 164.427 25.0494C164.985 25.6733 165.297 26.3932 165.363 27.2092C165.44 28.031 165.228 28.9645 164.724 30.0096Z" fill="black"/>
<path d="M178.332 36.4067L179.26 37.0705L173.424 44.3885L172.658 43.7774L174.005 41.8326L178.332 36.4067ZM179.26 37.0705L178.38 37.5966C177.996 37.137 177.52 36.612 176.95 36.0215C176.391 35.4393 175.778 34.8395 175.111 34.2221C174.454 33.613 173.792 33.0424 173.125 32.5103C172.156 31.7372 171.228 31.1681 170.342 30.803C169.457 30.4378 168.625 30.3371 167.846 30.5007C167.087 30.6622 166.387 31.1443 165.746 31.947C164.824 33.1041 164.466 34.1833 164.674 35.1846C164.9 36.1837 165.67 37.2071 166.984 38.2545C167.839 38.9362 168.731 39.4856 169.66 39.9027C170.6 40.3281 171.555 40.6807 172.526 40.9603C173.497 41.2399 174.431 41.4904 175.329 41.7118L174.83 42.3373C174.172 42.2217 173.472 42.0729 172.73 41.8908C171.999 41.717 171.257 41.4922 170.505 41.2164C169.764 40.9489 169.025 40.6242 168.289 40.2422C167.564 39.8685 166.884 39.4281 166.248 38.921C165.226 38.1063 164.489 37.288 164.036 36.4662C163.591 35.6339 163.433 34.7836 163.563 33.915C163.693 33.0465 164.119 32.1588 164.843 31.2519C165.649 30.2407 166.525 29.6344 167.47 29.4331C168.434 29.2296 169.448 29.3478 170.513 29.7876C171.577 30.2274 172.683 30.9045 173.83 31.819C174.914 32.6835 175.921 33.5805 176.851 34.5099C177.792 35.4475 178.595 36.3011 179.26 37.0705Z" fill="black"/>
<path d="M190.743 40.9839L179.016 50.3362L178.305 49.445L190.032 40.0926L190.743 40.9839ZM185.799 51.0151L182.631 47.0434L183.413 46.4199L186.581 50.3916L185.799 51.0151ZM194.546 53.9647L185.837 50.8059L186.309 50.4037L186.971 60.3124L185.911 58.9833L185.288 50.374L185.991 49.8129L193.461 52.6043L194.546 53.9647Z" fill="black"/>
<path d="M193.9 71.6577C194.305 72.4986 194.734 73.2832 195.189 74.0115C195.649 74.7519 196.072 75.3843 196.457 75.9089C196.849 76.4455 197.139 76.8314 197.326 77.0668L196.583 77.6909C196.255 77.2864 195.881 76.7859 195.46 76.1893C195.046 75.6047 194.62 74.9513 194.183 74.2292C193.753 73.5191 193.355 72.7857 192.991 72.0288C192.233 70.4551 191.738 69.0583 191.505 67.8383C191.279 66.6303 191.369 65.588 191.775 64.7115C192.182 63.8349 192.98 63.1103 194.169 62.5375C195.31 61.9879 196.353 61.8335 197.298 62.0741C198.255 62.309 199.126 62.8735 199.912 63.7678C200.71 64.6563 201.444 65.7973 202.115 67.1908C202.584 68.1638 202.943 69.0935 203.192 69.9798C203.447 70.8781 203.56 71.7117 203.53 72.4805C203.501 73.2494 203.285 73.938 202.883 74.5462C202.492 75.1487 201.882 75.6495 201.053 76.0487C200.981 76.0834 200.9 76.115 200.81 76.1435C200.726 76.184 200.639 76.2185 200.549 76.247C200.472 76.2697 200.406 76.2866 200.352 76.2977L194.069 63.2517L194.79 62.9046L200.864 75.5181L200.224 75.2492C201.077 74.8385 201.708 74.3201 202.117 73.694C202.532 73.08 202.681 72.2831 202.564 71.3033C202.447 70.3236 202.022 69.0709 201.287 67.5452C200.679 66.2839 200.044 65.2726 199.382 64.5113C198.719 63.7501 198.005 63.2803 197.238 63.1019C196.471 62.9236 195.614 63.0629 194.665 63.5199C193.896 63.8902 193.326 64.3349 192.954 64.8542C192.595 65.3677 192.404 65.9552 192.382 66.6169C192.36 67.2785 192.484 68.0258 192.751 68.8587C193.019 69.6916 193.402 70.6246 193.9 71.6577Z" fill="black"/>
<path d="M198.812 86.7808L208.445 84.5823L208.663 85.5377L205.969 86.3167L199.066 87.8922L198.812 86.7808ZM210.613 93.0932L209.599 93.3246C209.454 92.6877 209.263 92.0611 209.026 91.4449C208.79 90.8287 208.484 90.2079 208.109 89.5824C207.747 88.9539 207.308 88.3222 206.794 87.6874C206.283 87.0655 205.686 86.429 205.004 85.7778L205.823 85.5908C206.335 86.0348 206.828 86.5172 207.302 87.038C207.79 87.5558 208.247 88.1216 208.675 88.7352C209.102 89.3489 209.479 90.0149 209.808 90.7332C210.152 91.4616 210.42 92.2482 210.613 93.0932Z" fill="black"/>
<path d="M97.0067 110.497C101.172 110.645 109.503 108.354 109.503 98" stroke="black" stroke-linecap="round"/>
<path d="M122 110.497C117.834 110.645 109.503 108.354 109.503 98" stroke="black" stroke-linecap="round"/>
<path d="M97.0067 110.503C101.172 110.355 109.503 112.646 109.503 123" stroke="black" stroke-linecap="round"/>
<path d="M122 110.503C117.834 110.355 109.503 112.646 109.503 123" stroke="black" stroke-linecap="round"/>
</svg>
